<svg xmlns="http://www.w3.org/2000/svg" xmlns:xlink="http://www.w3.org/1999/xlink" viewBox="0 0 959.976 959.976"><defs><style>.cls-1{isolation:isolate;}.cls-2{fill:url(#radial-gradient);}.cls-3{fill:url(#radial-gradient-2);}.cls-4{fill:url(#radial-gradient-3);}.cls-5{fill:#fff;}.cls-12,.cls-6{mix-blend-mode:overlay;}.cls-6{fill:url(#radial-gradient-4);}.cls-7{fill:url(#linear-gradient);}.cls-8{fill:#292929;}.cls-9{fill:url(#linear-gradient-2);}.cls-10{fill:url(#linear-gradient-3);}.cls-11{fill:url(#linear-gradient-4);}.cls-12{fill:#eaeaea;opacity:0.6;}</style><radialGradient id="radial-gradient" cx="479.988" cy="479.988" r="457.90993" gradientUnits="userSpaceOnUse"><stop offset="0"/><stop offset="1" stop-color="#292929"/></radialGradient><radialGradient id="radial-gradient-2" cx="479.98185" cy="479.98179" r="296.02305" gradientUnits="userSpaceOnUse"><stop offset="0"/><stop offset="0.99441" stop-color="#1c1c1c"/></radialGradient><radialGradient id="radial-gradient-3" cx="479.98292" cy="479.82653" r="295.942" gradientUnits="userSpaceOnUse"><stop offset="0.21229"/><stop offset="0.33557" stop-color="#030001"/><stop offset="0.44302" stop-color="#0e0005"/><stop offset="0.54456" stop-color="#20000c"/><stop offset="0.64251" stop-color="#390015"/><stop offset="0.7379" stop-color="#5a0021"/><stop offset="0.83137" stop-color="#820030"/><stop offset="0.92148" stop-color="#b00042"/><stop offset="1" stop-color="#df0053"/></radialGradient><radialGradient id="radial-gradient-4" cx="450.49981" cy="427.96465" r="283.88121" gradientUnits="userSpaceOnUse"><stop offset="0.21229"/><stop offset="0.34027" stop-color="#030001"/><stop offset="0.45181" stop-color="#0e0005"/><stop offset="0.5572" stop-color="#20000c"/><stop offset="0.65884" stop-color="#390015"/><stop offset="0.75785" stop-color="#5a0021"/><stop offset="0.85486" stop-color="#820030"/><stop offset="0.94843" stop-color="#b00041"/><stop offset="1" stop-color="#cd004c"/></radialGradient><linearGradient id="linear-gradient" x1="288.49323" y1="360.02058" x2="620.64666" y2="285.57861" gradientUnits="userSpaceOnUse"><stop offset="0.01117" stop-color="#e0e0e0"/><stop offset="0.17919"/><stop offset="0.3074" stop-color="#030303"/><stop offset="0.41914" stop-color="#0e0e0e"/><stop offset="0.52474" stop-color="#202020"/><stop offset="0.62659" stop-color="#393939"/><stop offset="0.72581" stop-color="#5a5a5a"/><stop offset="0.82294" stop-color="#828282"/><stop offset="0.91663" stop-color="#b0b0b0"/><stop offset="1" stop-color="#e0e0e0"/></linearGradient><linearGradient id="linear-gradient-2" x1="500.09244" y1="671.76633" x2="500.09244" y2="484.10752" gradientUnits="userSpaceOnUse"><stop offset="0" stop-color="#585858"/><stop offset="0.39665" stop-color="#292929"/><stop offset="0.73464"/></linearGradient><linearGradient id="linear-gradient-3" x1="466.87123" y1="698.61324" x2="518.42789" y2="698.61324" gradientUnits="userSpaceOnUse"><stop offset="0" stop-color="#585858"/><stop offset="0.39665" stop-color="#292929"/><stop offset="0.91899"/></linearGradient><linearGradient id="linear-gradient-4" x1="450.49857" y1="688.14177" x2="450.49857" y2="92.25934" gradientUnits="userSpaceOnUse"><stop offset="0"/><stop offset="0.2905" stop-color="#292929"/><stop offset="1" stop-color="#585858"/></linearGradient></defs><g class="cls-1"><g id="DESIGN"><circle class="cls-2" cx="479.988" cy="479.988" r="457.90993"/><path class="cls-3" d="M776.00487,479.9921c0,146.18338-105.93509,267.58754-245.21823,291.64589-4.09909.74162-8.21867,1.35954-12.35875,1.8951a299.68964,299.68964,0,0,1-38.43579,2.47178c-4.38737,0-8.77474-.10309-13.12087-.309q-6.2103-.27816-12.35875-.80335C302.97356,762.0188,183.95884,634.90911,183.95884,479.9921a296.26635,296.26635,0,0,1,99.65275-221.51h.02049a292.8779,292.8779,0,0,1,27.47769-21.62782q9.63981-6.73567,19.81519-12.64715,3.46043-2.0393,6.98272-3.95476,10.165-5.59252,20.82447-10.38144c1.97744-.90631,3.97538-1.77139,5.99406-2.616.0205-.0205.0205-.0205.04111-.0205a297.38346,297.38346,0,0,1,177.01854-16.808,290.087,290.087,0,0,1,30.75268,8.301h.02062q5.376,1.76115,10.66971,3.74884,6.55013,2.44079,12.95617,5.19059C701.91408,252.81767,776.00487,357.764,776.00487,479.9921Z"/><path class="cls-4" d="M221.22418,623.87657q-5.82108-10.44486-10.79191-21.40353l265.58155-120.481ZM475.6383,479.05071l-282.32051-73.105q-2.97333,11.54352-5.02816,23.43592Zm-.064,1.50348L185.08,505.67262q1.03436,12.03176,3.008,23.77787Zm-.03369-.75457L184.96083,455.46141q-.97176,11.84638-.99407,23.94572Zm.1926,1.49242L193.609,555.15691q3.05123,11.655,7.00309,22.92537Zm2.42136,2.75176-130.932,260.55967q10.68021,5.36754,21.829,9.90068Zm-.65865-.36811L304.43455,718.33006q9.633,7.10587,19.8431,13.43944Zm-1.08647-1.04046L235.04229,646.24463q6.75,9.92381,14.26919,19.25511ZM283.99126,701.80357,476.90794,483.20122l-210.228,202.03086Q274.99174,693.86676,283.99126,701.80357ZM480.36574,484.42322,493.13082,775.682q12.06739-.52859,23.88172-1.98889Zm-1.49908-.12736L393.84994,763.24494q11.41341,3.46477,23.19743,6.03153Zm-37.0603-297.89253q-11.97253,1.54164-23.62663,4.03724l61.05554,285.161Zm34.0522,291.92675L209.954,358.56431q-4.90665,10.8935-8.94257,22.24Zm1.95821-2.226L346.1911,215.91151c-2.7813,1.414-5.55543,2.84-8.28342,4.34086q-3.52229,1.91559-6.98272,3.95476c-1.90139,1.10382-3.7584,2.28269-5.63351,3.43152Zm.68844-.31178L392.7284,197.04237q-11.50713,3.54774-22.59749,7.998Zm-2.30771,1.86241L234.39458,314.69793q-6.69156,9.92136-12.59322,20.393ZM250.04882,293.5779,476.647,477.04737,265.88511,275.592Q257.60987,284.25692,250.04882,293.5779Zm53.44761-51.24148q-9.62152,7.15036-18.62613,15.07794l192.32,219.11177ZM484.24356,481.29217l275.10571,96.785q3.95376-11.2616,7.02471-22.91833ZM482.48,483.67594l153.2208,248.09783q10.20535-6.32457,19.842-13.44157Zm210.81288,201.5535L483.06708,483.201,675.98577,701.80558Q684.96725,693.86374,693.29285,685.22944ZM481.82094,484.04367,590.92443,754.50579q11.1507-4.51064,21.835-9.88937Zm84.311,279.21875L481.10987,484.29561l61.82055,284.986Q554.71154,766.73,566.132,763.26242ZM484.40272,480.55457l287.47791,48.89479q1.97443-11.73775,3.00822-23.777Zm.03143-.75583,291.56493-.39237q-.02337-12.0921-1.00362-23.94433Zm33.7335-293.38937L480.73938,475.60159,541.7973,190.42913l-.01144-.00264Q530.13692,187.94742,518.16765,186.40937ZM479.61079,484.42322,442.96613,773.67415c7.86968.98087,15.82987,1.66968,23.87883,2.02019Zm3.95565-1.78874L710.66757,665.50162q7.51-9.32638,14.26265-19.26Zm.39526-.64256,254.7738,141.8756q5.82051-10.44523,10.80247-21.39687Zm282.70068-76.046L484.3381,479.052l287.34553-49.6686Q769.63585,417.49719,766.66238,405.94594ZM484.11822,478.3292l274.8466-97.5257q-4.03166-11.3389-8.94031-22.2407Zm-2.64791-2.537L589.84449,205.04053c-2.19393-.87727-4.39616-1.73833-6.61562-2.56418q-5.28324-1.97745-10.66971-3.74884h-.02062c-1.75567-.58045-3.52706-1.12205-5.29657-1.66855ZM656.48626,242.323,482.784,476.52425,675.11654,257.398Q666.11263,249.49862,656.48626,242.323ZM479.9921,183.95871c-4.01712,0-8.00935.10322-11.98725.26163L479.9872,475.53747l11.98222-291.31525C487.99479,184.06407,484.00646,183.95871,479.9921,183.95871Zm2.167,292.14387L634.713,227.591q-10.19292-6.26141-20.911-11.71469Zm1.16869.94554,226.604-183.47437q-7.55808-9.31131-15.834-17.98886Zm.4492.60622L738.16537,335.095q-5.88785-10.46918-12.58128-20.40016Z"/><path class="cls-5" d="M444.98749,96.79938a11.958,11.958,0,0,1,4.51684,8.356,12.16888,12.16888,0,1,1-24.1826,2.72375,11.96692,11.96692,0,0,1,2.54513-9.15175,12.21978,12.21978,0,0,1,17.12063-1.928Z"/><path class="cls-5" d="M381.55616,107.92821a11.95954,11.95954,0,0,1,5.853,7.48132,12.16871,12.16871,0,1,1-23.3838,6.7377,11.964,11.964,0,0,1,.97512-9.44919,12.22088,12.22088,0,0,1,16.55564-4.76983Z"/><path class="cls-5" d="M320.86238,129.56568a11.9575,11.9575,0,0,1,7.02672,6.3912,12.16862,12.16862,0,1,1-21.91881,10.57151,11.963,11.963,0,0,1-.62632-9.47756,12.21922,12.21922,0,0,1,15.51841-7.48515Z"/><path class="cls-5" d="M264.70845,161.04485a11.95987,11.95987,0,0,1,7.99494,5.12936,12.16877,12.16877,0,1,1-19.84821,14.08027,11.96349,11.96349,0,0,1-2.19939-9.24068,12.22074,12.22074,0,0,1,14.05266-9.969Z"/><path class="cls-5" d="M214.57775,201.42662a11.95544,11.95544,0,0,1,8.73472,3.73184,12.1688,12.1688,0,1,1-17.23792,17.17735,11.96468,11.96468,0,0,1-3.70118-8.74775,12.22066,12.22066,0,0,1,12.20438-12.16144Z"/><path class="cls-5" d="M171.8356,249.55494a11.958,11.958,0,0,1,9.233,2.23313,12.16852,12.16852,0,1,1-14.15156,19.79684,11.96343,11.96343,0,0,1-5.101-8.01333,12.22133,12.22133,0,0,1,10.01955-14.01664Z"/><path class="cls-5" d="M137.66565,304.14423a11.95824,11.95824,0,0,1,9.476.66081,12.16859,12.16859,0,1,1-10.64893,21.88125,11.96341,11.96341,0,0,1-6.36667-7.04971,12.22078,12.22078,0,0,1,7.53958-15.49235Z"/><path class="cls-5" d="M113.10971,363.69423a11.96028,11.96028,0,0,1,9.45226-.9414,12.16882,12.16882,0,1,1-6.8205,23.36,11.96316,11.96316,0,0,1-7.46062-5.87987,12.2209,12.2209,0,0,1,4.82886-16.53877Z"/><path class="cls-5" d="M98.91369,426.513a11.95654,11.95654,0,0,1,9.16094-2.51217A12.16882,12.16882,0,1,1,105.265,448.1735a11.96422,11.96422,0,0,1-8.3399-4.54674A12.21907,12.21907,0,0,1,98.91369,426.513Z"/><path class="cls-5" d="M95.38116,490.7746a11.95677,11.95677,0,0,1,8.622-3.98483,12.16908,12.16908,0,1,1,1.20587,24.306,11.96555,11.96555,0,0,1-8.97466-3.11242,12.2199,12.2199,0,0,1-.85324-17.20878Z"/><path class="cls-5" d="M863.80228,507.09872a11.95783,11.95783,0,0,1-8.96776,3.13235,12.16857,12.16857,0,1,1,1.15144-24.30756,11.96026,11.96026,0,0,1,8.63046,3.96489,12.22142,12.22142,0,0,1-.81414,17.21032Z"/><path class="cls-5" d="M862.98968,442.98281a11.95959,11.95959,0,0,1-8.333,4.56054,12.1689,12.1689,0,1,1-2.85025-24.168,11.96685,11.96685,0,0,1,9.16555,2.49684,12.22146,12.22146,0,0,1,2.01771,17.11066Z"/><path class="cls-5" d="M851.51971,379.58905a11.95613,11.95613,0,0,1-7.44988,5.8929,12.16865,12.16865,0,1,1-6.86113-23.34777,11.96565,11.96565,0,0,1,9.45379.92453,12.22129,12.22129,0,0,1,4.85722,16.53034Z"/><path class="cls-5" d="M829.57177,319.03939a11.96077,11.96077,0,0,1-6.35364,7.06122A12.16891,12.16891,0,1,1,812.53164,304.237a11.96521,11.96521,0,0,1,9.47525-.67615,12.21851,12.21851,0,0,1,7.56488,15.47855Z"/><path class="cls-5" d="M797.78979,263.03265a11.956,11.956,0,0,1-5.0872,8.02177,12.16869,12.16869,0,1,1-14.18529-19.77308,11.96484,11.96484,0,0,1,9.23-2.24846,12.22049,12.22049,0,0,1,10.04254,13.99977Z"/><path class="cls-5" d="M757.12285,213.0936a11.9504,11.9504,0,0,1-3.68585,8.75465,12.16831,12.16831,0,1,1-17.267-17.14669,11.961,11.961,0,0,1,8.72705-3.74717,12.21942,12.21942,0,0,1,12.22584,12.13921Z"/><path class="cls-5" d="M708.79444,170.62436a11.95591,11.95591,0,0,1-2.1833,9.24451,12.16894,12.16894,0,1,1-19.872-14.0473,11.96652,11.96652,0,0,1,7.98651-5.14239,12.21911,12.21911,0,0,1,14.06877,9.94518Z"/><path class="cls-5" d="M654.01273,136.73652a11.9638,11.9638,0,0,1-.61022,9.47909A12.16894,12.16894,0,1,1,631.46377,135.684a11.968,11.968,0,0,1,7.016-6.40423,12.22292,12.22292,0,0,1,15.533,7.45678Z"/><path class="cls-5" d="M594.33548,112.501a11.95622,11.95622,0,0,1,.992,9.44689,12.1685,12.1685,0,1,1-23.3953-6.69631,11.96517,11.96517,0,0,1,5.84-7.49127,12.21877,12.21877,0,0,1,16.56331,4.74069Z"/><path class="cls-5" d="M531.46607,98.64154a11.95673,11.95673,0,0,1,2.56047,9.14715,12.16928,12.16928,0,1,1-24.188-2.68312,11.9672,11.9672,0,0,1,4.503-8.36368,12.2212,12.2212,0,0,1,17.12446,1.89965Z"/><path class="cls-6" d="M648.87443,444.9344l-4.63453-21.36a20.03983,20.03983,0,0,0-11.4112-13.90359,19.86569,19.86569,0,0,0-3.83118-29.74341,20.08264,20.08264,0,0,0-3.04858-1.689c.45322-.51495.88582-1.071,1.29768-1.62719a19.81592,19.81592,0,0,0,3.56352-14.13014c-.06185-.55619-.16482-1.11237-.26778-1.66843l-.08247-.309a18.44546,18.44546,0,0,0-1.15348-3.46044,19.74041,19.74041,0,0,0-10.299-10.34019,19.855,19.855,0,0,0,4.65515-17.467l-.26778-1.0299a19.2642,19.2642,0,0,0-1.56547-4.05785,19.63933,19.63933,0,0,0-7.992-8.23917c-.59729-.32951-1.174-.61791-1.77139-.8857l.26778-.30889c.12358-.1442.26779-.309.39137-.47384a19.74655,19.74655,0,0,0,4.03724-16.62241l-.08248-.37087a19.78789,19.78789,0,0,0-4.7786-9.22783q-.37093-.37074-.74162-.74149a20.23384,20.23384,0,0,0-6.0558-4.07835,19.92334,19.92334,0,0,0,4.67577-17.59071l-.1442-.63853A19.90035,19.90035,0,0,0,598.08,251.27283c.35013-.39137.67976-.78273,1.00927-1.19472a19.77784,19.77784,0,0,0,3.74884-16.23117l-.12358-.63853a19.93439,19.93439,0,0,0-11.6585-14.02718,19.68982,19.68982,0,0,0,4.77874-17.467l-.1442-.67977a19.86032,19.86032,0,0,0-5.64381-10.07241l-.51495-.49433a20.06584,20.06584,0,0,0-3.1308-2.28634c-.22667-.1442-.47384-.26779-.65915-.37075a18.78206,18.78206,0,0,0-2.28646-1.05051l-.49433-.22668a20.08566,20.08566,0,0,0,1.81262-2.32745,19.61459,19.61459,0,0,0,2.101-17.75552,131.55914,131.55914,0,0,0-21.54547-38.14726c-1.895-2.32758-3.74884-4.44923-5.685-6.4884-47.62238-50.71207-120.08585-42.78192-141.15748-39.136l-.22655.04124a310.061,310.061,0,0,0-130.36432,58.66284A99.213,99.213,0,0,0,276.13454,152.135a100.66772,100.66772,0,0,0-8.816,10.9581c-1.07113,1.586-2.14213,3.25439-3.2545,5.12887a96.20253,96.20253,0,0,0-13.67693,49.435,94.97054,94.97054,0,0,0,2.28634,20.80385c.04124.20593.08235.412.12359.59729l2.01855,8.98079a21.89654,21.89654,0,0,0,.74162,2.40992,18.81517,18.81517,0,0,0,9.9076,10.608,18.90711,18.90711,0,0,0-3.95489,16.31352l.47383,2.08041c.0205.08235.04111.1442.06173.22655a18.3629,18.3629,0,0,0,1.68905,4.49033,18.805,18.805,0,0,0,8.7335,8.23917.28431.28431,0,0,1-.06173.08234l-.55619.70039a18.99126,18.99126,0,0,0-3.21327,15.4072l.47371,2.12165a18.91335,18.91335,0,0,0,10.3402,12.93543,19.1171,19.1171,0,0,0-3.7076,16.23117l.47371,1.97745a18.76734,18.76734,0,0,0,10.21662,12.89431,19.00783,19.00783,0,0,0-3.62526,16.087l.47371,2.08041a18.87094,18.87094,0,0,0,10.093,12.79122,18.7875,18.7875,0,0,0-3.56353,15.77808l.49446,2.32758a18.87086,18.87086,0,0,0,9.9487,12.7295,18.73086,18.73086,0,0,0-3.43982,15.778l.51495,2.24523a18.74068,18.74068,0,0,0,9.82525,12.66764,19.06048,19.06048,0,0,0-3.35747,15.77808l.49433,2.16276a18.835,18.835,0,0,0,9.72216,12.64715A18.98011,18.98011,0,0,0,310.7184,493.422a119.93465,119.93465,0,0,0,3.66649,12.52345,110.66652,110.66652,0,0,0,21.40114,36.479c.22668.24717.47384.51495.70039.76212l.2884.309c.43248.49433.86508.968,1.31817,1.46237a112.55308,112.55308,0,0,0,41.56672,27.91015,24.12253,24.12253,0,0,1,13.32679,13.07976l37.28219,87.60289a44.42365,44.42365,0,0,0,24.24379,23.72885v77.613q6.14846.52519,12.35875.80335c4.34613.20593,8.7335.309,13.12087.309a299.68964,299.68964,0,0,0,38.43579-2.47178c4.14008-.53556,8.25966-1.15348,12.35875-1.8951V684.3235l2.94549-1.42126a44.4419,44.4419,0,0,0,24.4291-47.3546l-10.69032-88.20031,49.35266-14.54213A74.09148,74.09148,0,0,0,611.44805,526.77a75.20259,75.20259,0,0,0,37.42638-81.83562Z"/><path d="M620.91845,418.964l-16.48834,3.39411L446.14177,454.872,352.727,474.06018c-.01918-.0193-.01918-.0193-.01918,0l-18.84113,3.87623L331.8996,469.374l-1.38844-6.1132-.79074-3.452-1.40774-6.0939-1.427-6.2482-1.98638-8.736-1.40774-6.09389-2.17917-9.52662-1.42705-6.20971-2.04416-8.90949v-.01931l-1.38856-6.07459-2.15987-9.48812-1.427-6.2289-2.08278-9.06381-1.38843-6.09389-2.15987-9.44952v-.0193l-1.42705-6.2096-2.12138-9.2373-1.38844-6.094-2.15987-9.41091-.1157-.50142-1.31134-5.74679-2.16-9.39161-1.38843-6.11319-2.14057-9.35312-1.42705-6.2289L289.3963,283.663l-1.38856-6.0747-2.14056-9.31452-1.42705-6.2289-1.427-6.2482-.81-3.54843-1.38844-6.05528-3.799-16.58486,16.93185-6.53752L500.10027,143.348l62.48215,14.65628,2.23709,5.57329,3.77971,17.16337,1.50426,6.90382.61712,2.75769,1.27274,5.8626,1.67775,7.63664,2.06347,9.37243,1.562,7.116,1.77415,8.09946,1.67788,7.61745,2.04416,9.2566,1.562,7.116,1.77416,8.08027,1.67775,7.63676,2.00556,9.1409,1.562,7.116,1.77427,8.061,1.65845,7.61745h.01931l1.98625,9.0638,1.56206,7.09674,1.755,8.04166,1.67776,7.61745,1.96695,8.9481,1.56217,7.09674,1.75485,8.02235,1.67775,7.59816,1.94777,8.8903,1.562,7.09674,1.73567,7.94526,1.67775,7.65594,1.92846,8.7553,1.56206,7.07743Z"/><path class="cls-7" d="M371.3473,354.22965a10.883,10.883,0,0,1-6.84273,14.30458A212.269,212.269,0,0,0,343.101,376.705a203.58965,203.58965,0,0,0-29.17849,15.936l-3.45567-15.29529a217.93479,217.93479,0,0,1,47.2237-28.35445A10.1335,10.1335,0,0,1,371.3473,354.22965Zm-21.5382-35.99273a218.749,218.749,0,0,0-46.36223,28.03853l3.49652,15.47585A204.27,204.27,0,0,1,335.26017,346.165a212.7394,212.7394,0,0,1,21.42591-8.318,10.96887,10.96887,0,0,0,6.81506-14.40933A10.11909,10.11909,0,0,0,349.8091,318.23692Zm229.26166-89.74736-1.77415-8.09946a7.34189,7.34189,0,0,1-2.87339-.21222c-65.105-17.24047-137.30665-7.40523-200.48314,17.85759a11.55648,11.55648,0,0,0-6.6531,6.74963,10.80449,10.80449,0,0,0,.2892,7.926c1.94776,4.55126,6.92323,7.65606,13.40284,5.16838.75213-.32792,1.485-.63642,2.237-.945a384.59249,384.59249,0,0,1,54.942-18.99532c44.104-11.60939,90.9656-14.13568,134.93455-3.76053,2.5842.57851,5.12967,1.25355,7.65607,1.92846Zm7.05825,32.07036-1.77416-8.08027a7.25687,7.25687,0,0,1-2.9313-.1928c-59.24247-15.69772-124.32812-9.1409-183.16545,11.01157-5.5155,1.88986-10.99227,3.89542-16.39194,6.0168a11.50381,11.50381,0,0,0-6.65323,6.67241c-2.68059,7.50175,3.68332,16.87406,13.63426,13.11365,10.04722-4.28126,20.17165-8.196,30.4504-11.648q13.16174-4.48365,26.72848-7.926c44.08477-11.33938,90.90781-13.63425,134.819-3.1048,2.33336.53991,4.64754,1.13773,6.96172,1.77416Zm14.00066,63.77431-1.755-8.04166a7.81279,7.81279,0,0,1-3.04689-.17362c-46.91956-12.4578-97.50313-11.18506-145.71472-.3085A386.69293,386.69293,0,0,0,397.641,331.50817a11.35235,11.35235,0,0,0-6.71114,6.59532c-2.66129,7.40535,3.64483,16.68126,13.53786,13.05574a394.32555,394.32555,0,0,1,52.62773-17.72259c1.50426-.38572,3.0277-.77143,4.55127-1.13785,44.08465-10.81865,90.83059-12.61211,134.58744-1.79345,1.87067.44351,3.72192.92562,5.57329,1.44634Zm-6.981-31.81965-1.77427-8.061a7.542,7.542,0,0,1-2.98909-.1928c-51.1236-13.55715-106.58623-10.68376-158.61615,3.1819a385.91014,385.91014,0,0,0-39.99632,13.03643,11.44539,11.44539,0,0,0-6.69171,6.65322c-2.66129,7.44385,3.68331,16.75836,13.59565,13.05574a401.97471,401.97471,0,0,1,45.99381-16.23775c3.70262-1.04133,7.42466-2.04416,11.18507-2.96979,44.08477-11.08867,90.8692-13.11353,134.70326-2.44919,2.102.50142,4.16543,1.04145,6.2482,1.60066h.01931ZM372.292,399.09951a10.79864,10.79864,0,0,0,6.87015-14.20041,10.14791,10.14791,0,0,0-13.62154-5.27585,217.19506,217.19506,0,0,0-48.08412,28.65848l3.41554,15.11744A203.0726,203.0726,0,0,1,350.91093,407.124,211.77624,211.77624,0,0,1,372.292,399.09951Zm7.75646,30.44369a10.715,10.715,0,0,0,6.89735-14.09659,10.16236,10.16236,0,0,0-13.58623-5.31293A216.2847,216.2847,0,0,0,324.41985,439.102l3.3747,14.93606a202.36382,202.36382,0,0,1,30.89532-16.61522A211.341,211.341,0,0,1,380.04845,429.5432Zm227.043-73.52433-1.75485-8.02235a7.33673,7.33673,0,0,1-3.08561-.17362c-45.56961-12.11069-94.61043-11.35856-141.54917-1.46565a381.32644,381.32644,0,0,0-55.23123,16.06414,11.1851,11.1851,0,0,0-6.69183,6.53752c-2.69978,7.32814,3.56772,16.58474,13.46075,13.03643a392.84576,392.84576,0,0,1,51.10429-16.98976c2.00556-.52072,4.04973-1.02214,6.07459-1.50426,44.06547-10.56794,90.77281-12.11069,134.47186-1.157,1.63915.4049,3.259.82923,4.87895,1.27274Zm6.92324,31.53046-1.73567-7.94526a7.33813,7.33813,0,0,1-3.08549-.17362c-46.95817-12.51571-97.619-11.45508-145.869-.86783a381.85746,381.85746,0,0,0-50.063,14.63709,11.14686,11.14686,0,0,0-6.711,6.47961c-2.68059,7.28965,3.54831,16.50765,13.422,13.03644a411.01088,411.01088,0,0,1,40.07354-13.75c5.65038-1.60066,11.33937-3.06631,17.10546-4.397,44.06535-10.29793,90.71489-11.60928,134.356-.50131,1.40786.34711,2.7963.752,4.18485,1.13773Zm6.90381,31.41463-1.73554-7.926a7.59364,7.59364,0,0,1-3.14341-.15431c-51.70211-13.80775-107.87827-11.28146-160.37111,2.27558-11.76359,3.0277-23.33437,6.61461-34.63514,10.70295a11.15978,11.15978,0,0,0-6.73043,6.42181c-2.68048,7.23174,3.50981,16.43055,13.38354,13.01713q10.41381-4.07862,20.9432-7.61745a361.12763,361.12763,0,0,1,36.2358-10.16293c39.14779-8.92879,80.32056-10.76086,119.56475-3.16271,4.91756.92563,9.81593,2.02487,14.65628,3.27842,1.17645.3085,2.33348.65561,3.50982.96423ZM572.01264,196.265l-1.292-5.8626-.61712-2.75769a7.09592,7.09592,0,0,1-3.76053.0193c-65.14344-16.93185-137.28734-6.67253-200.34813,18.95683a11.73148,11.73148,0,0,0-6.67241,6.80742c-2.642,7.61745,3.799,17.00906,13.76914,13.11365a389.11877,389.11877,0,0,1,57.179-20.30678c44.104-11.87929,91.00421-14.65628,135.05038-4.43545,2.81548.63643,5.57317,1.35,8.35016,2.102h.0193ZM394.76759,446.11676v-.0193a1.08664,1.08664,0,0,0-.07722-.23141,10.16549,10.16549,0,0,0-13.53773-5.34188,215.03521,215.03521,0,0,0-49.253,28.84986c-.1735.15431-.36642.2892-.53991.42421l1.92846,8.52389,1.40774,6.2289a205.89865,205.89865,0,0,1,18.01191-10.49085c0-.0193,0-.0193.01918,0,4.474-2.33348,9.0445-4.474,13.71147-6.4603a211.761,211.761,0,0,1,21.3288-7.73316A10.61346,10.61346,0,0,0,394.76759,446.11676Zm-38.9743-153.12007v-.0193q-.08686-.23129-.17361-.46281a10.094,10.094,0,0,0-13.73066-5.149,218.64031,218.64031,0,0,0-45.3382,27.59631c-.05779.03861-.0964.0771-.15419.11571l2.12126,9.41091,1.25355,5.554.15419.69422c.07722-.0386.135-.0964.21222-.135.1928-.11571.36642-.25071.55922-.36642a205.01137,205.01137,0,0,1,26.69-14.73349,212.467,212.467,0,0,1,21.4445-8.46587A11.04482,11.04482,0,0,0,355.79329,292.99669Zm-7.90665-31.02891a2.05311,2.05311,0,0,0-.17362-.48212,10.1044,10.1044,0,0,0-13.76926-5.12978A220.60871,220.60871,0,0,0,289.3963,283.663c-.01931.01919-.05791.03849-.07722.0578l2.16,9.623,1.40774,6.229a.48314.48314,0,0,1,.135-.07721,206.06862,206.06862,0,0,1,26.45846-14.772,209.74148,209.74148,0,0,1,21.48312-8.6203A11.14319,11.14319,0,0,0,347.88664,261.96778Zm-7.92608-31.10613a2.56543,2.56543,0,0,0-.1928-.54,10.07165,10.07165,0,0,0-13.78856-5.09117q-9.43021,4.368-18.3011,9.58452h-.01931a228.31752,228.31752,0,0,0-25.45574,17.43327l.81,3.54843,1.40774,6.26751,1.40774,6.2289c.0193,0,.0193-.01931.03861-.01931a208.05529,208.05529,0,0,1,25.68715-14.46348,214.32817,214.32817,0,0,1,21.0974-8.63948c.135-.0386.25071-.0964.38571-.135A11.21624,11.21624,0,0,0,339.96056,230.86165Z"/><path class="cls-8" d="M466.86637,659.66548V637.73729c3.53634,1.264,6.14958,5.70931,6.14958,10.964C473.016,653.97039,470.40271,658.40146,466.86637,659.66548Z"/><path class="cls-8" d="M466.87123,622.59147a11.57494,11.57494,0,0,0-2.05979-.1647c-11.164,0-20.20655,11.78195-20.20655,26.28285,0,14.52163,9.04251,26.26234,20.20655,26.26234a13.88418,13.88418,0,0,0,2.05979-.16469c10.17538-1.29768,18.14677-12.48233,18.14677-26.09765C485.018,635.09442,477.04661,623.93038,466.87123,622.59147Zm0,40.02174a8.54283,8.54283,0,0,1-2.05979.24717c-6.11752,0-11.08169-6.34407-11.08169-14.15076,0-7.80657,4.96417-14.17138,11.08169-14.17138a7.64181,7.64181,0,0,1,2.05979.26778c5.10825,1.236,8.98067,7.00334,8.98067,13.9036C475.8519,655.61,471.97948,661.37739,466.87123,662.61321Z"/><path d="M473.016,648.70134c0,5.269-2.61324,9.70012-6.14958,10.96414a6.34088,6.34088,0,0,1-2.05933.35506c-4.53051,0-8.223-5.0702-8.223-11.3192,0-6.2347,3.69253-11.31911,8.223-11.31911a6.34088,6.34088,0,0,1,2.05933.35506C470.40271,639.0013,473.016,643.4466,473.016,648.70134Z"/><path class="cls-9" d="M528.35219,671.76633V622.899a11.87674,11.87674,0,0,0-14.01985-11.41647L496.089,614.703l-13.40285,2.35279-28.94626-61.36373,30.60471-6.57613-5.59247-31.24114-2.642-14.81058,16.23764-6.0168h.0193l34.96306-12.93992,1.71624,14.21277,4.87907,40.13133.94493,7.71385,4.70545,38.85848,6.36391,52.33853A31.95282,31.95282,0,0,1,528.35219,671.76633Z"/><path class="cls-10" d="M518.42789,623.02407v150.509a299.68964,299.68964,0,0,1-38.43579,2.47178c-4.38737,0-8.77474-.10309-13.12087-.309V687.86628a31.61388,31.61388,0,0,0,6.40593.20606l.55618-.06186a25.01648,25.01648,0,0,0,3.00734-.39136,31.19455,31.19455,0,0,0,3.81057-.94755,31.988,31.988,0,0,0,21.85436-36.10809l-4.65515-26.07691,18.35282-3.23389A1.87516,1.87516,0,0,1,518.42789,623.02407Z"/><path class="cls-11" d="M636.80408,447.571l-4.63453-21.31892a7.60438,7.60438,0,0,0-5.27306-5.62319c-1.97745-.5973-3.97539-1.15348-5.97345-1.66843-.59729-.16482-1.21521-.32951-1.83312-.47371-43.56465-11.24651-90.17776-10.17538-134.21612-.1442-11.55541,2.59536-22.86365,5.74677-34.02768,9.45437q-11.64819,3.83137-23.15217,8.34226c-6.67371,2.32745-11.679-1.133-13.38865-5.84986-1.73016-4.79935-.06173-10.9375,6.73556-13.59458a384.44293,384.44293,0,0,1,37.19984-11.37009c51.76259-12.97667,106.965-15.18066,157.8625-1.58608a7.7809,7.7809,0,0,0,1.52422.22654,7.5219,7.5219,0,0,0,2.53351-14.70682c-2.01856-.59742-4.07835-1.17409-6.13814-1.70966-.84446-.22655-1.689-.45309-2.51289-.65915-43.647-11.08169-90.30134-9.76339-134.36032.51495q-7.75515,1.79206-15.38659,3.91365a412.67375,412.67375,0,0,0-41.79326,14.23311c-6.69433,2.36881-11.69961-1.11224-13.40914-5.87035-1.73028-4.82-.06186-10.95811,6.69432-13.65644a381.73189,381.73189,0,0,1,50.27947-14.64509c48.19919-10.58736,98.78768-11.59664,145.68906.90632a7.82131,7.82131,0,0,0,1.50373.22654,7.50248,7.50248,0,0,0,7.72422-9.10424l-.02062-.08248a7.503,7.503,0,0,0-5.12886-5.582c-2.05979-.618-4.11958-1.19472-6.22061-1.73028-1.05052-.2884-2.101-.55619-3.19266-.824-43.68823-10.95811-90.4043-9.41326-134.46328,1.133-2.26573.53544-4.49034,1.09162-6.73544,1.66842a393.77566,393.77566,0,0,0-50.44441,16.84909c-6.73544,2.40992-11.76134-1.07113-13.471-5.8911-1.73028-4.81985-.06173-10.958,6.69433-13.69755a381.15723,381.15723,0,0,1,53.51335-15.6956c47.49881-10.23723,97.22222-11.14355,143.36161,1.13286a5.91551,5.91551,0,0,0,1.42126.20593,7.48361,7.48361,0,0,0,7.80657-9.08363l-.04124-.12358a7.49812,7.49812,0,0,0-5.12886-5.6027c-2.08041-.61791-4.16069-1.21521-6.26172-1.75077-1.29768-.35013-2.616-.70039-3.91366-1.00928-43.75-10.79329-90.48665-9.00128-134.58674,1.81262-2.32758.57668-4.63454,1.15348-6.96211,1.7714A397.15314,397.15314,0,0,0,404.45956,343.984c-6.73556,2.47177-11.82319-1.05039-13.53285-5.87036-1.68905-4.84046-.04124-10.99935,6.71494-13.78A379.08953,379.08953,0,0,1,446.10849,309.462c49.29081-11.61726,101.23884-13.26507,149.33493-.47384a8.05831,8.05831,0,0,0,1.35953.20605,7.50221,7.50221,0,0,0,7.84781-9.10437l-.04124-.20593a7.52371,7.52371,0,0,0-5.14948-5.6027c-2.101-.63853-4.20193-1.2152-6.303-1.77139-1.52422-.39136-3.04845-.78273-4.59329-1.15348-43.83244-10.6697-90.63086-8.60991-134.71046,2.45116q-7.75515,1.91559-15.34547,4.18144a405.31789,405.31789,0,0,0-41.83438,15.03646c-6.756,2.51288-11.88491-1.00928-13.59457-5.891-1.68905-4.84059-.04124-11.02,6.69432-13.82125,11.22589-4.34613,22.71944-8.19793,34.39855-11.49367,53.65756-15.18066,111.33174-18.76468,164.33015-4.69626a5.85172,5.85172,0,0,0,1.3183.20592,7.4894,7.4894,0,0,0,7.889-9.08362l-.08247-.309a7.53467,7.53467,0,0,0-5.27307-5.62319c-2.05979-.61792-4.14007-1.19472-6.22048-1.7509-1.7509-.47372-3.52229-.90632-5.29368-1.31818-43.91479-10.505-90.73382-8.23916-134.81342,3.11019-11.22589,2.84252-22.184,6.22061-32.99791,10.11365-8.13608,2.88375-16.16932,6.05579-24.18194,9.45437-6.81791,2.59536-11.94677-.98866-13.63581-5.93209-1.68905-4.84058-.02062-10.99934,6.65308-13.82125,2.53363-1.00927,5.06714-1.97744,7.64188-2.92487,61.114-22.55474,129.80814-30.6086,192.01388-14.089a6.863,6.863,0,0,0,1.27706.20593,7.48487,7.48487,0,0,0,7.93015-9.08363l-.08234-.412a7.52862,7.52862,0,0,0-5.29368-5.62319c-2.08041-.61792-4.18144-1.19472-6.28234-1.75078-1.97745-.51494-3.97551-1.02989-5.97345-1.48311-43.97651-10.38131-90.83678-7.82719-134.937,3.76945a390.72667,390.72667,0,0,0-57.17985,19.93878c-6.81791,2.63646-11.988-.96817-13.69754-5.93222-1.66843-4.86107-.02062-11.01983,6.65308-13.92421,63.215-25.25307,135.452-35.09881,200.58257-17.79663a6.25417,6.25417,0,0,0,1.21521.20605,7.50871,7.50871,0,0,0,7.992-9.10437l-.103-.49433a5.0673,5.0673,0,0,0-.39137-1.19459,7.38849,7.38849,0,0,0-4.7375-4.38737c-2.14214-.63853-4.305-1.236-6.48839-1.83324-2.20387-.5768-4.4491-1.13286-6.67371-1.62719a238.56236,238.56236,0,0,0-23.54341-4.20206c-36.97329-4.75811-75.18241-1.13286-111.51717,8.65115A389.95577,389.95577,0,0,0,373.089,219.38716c-6.85914,2.67771-12.04985-.94742-13.75952-5.95283a10.96422,10.96422,0,0,1-.59729-3.5634c-.02062-4.01662,2.16275-8.17731,7.27112-10.40192,63.05021-25.62382,135.20466-35.88155,200.31479-18.95011a7.982,7.982,0,0,0,2.28634.22654,7.50993,7.50993,0,0,0,6.65308-10.05179,117.30522,117.30522,0,0,0-24.61454-40.41311C507.32558,84.16189,440.54716,91.41227,420.58777,94.8727A295.99014,295.99014,0,0,0,295.4554,151.16686a83.96772,83.96772,0,0,0-30.60861,85.17248l2.01868,8.91881a6.624,6.624,0,0,0,10.69033,3.584c1.071-.88569,2.16275-1.77139,3.25438-2.65708a223.09149,223.09149,0,0,1,21.40127-15.18066,211.47525,211.47525,0,0,1,23.76995-12.93555,10.132,10.132,0,0,1,11.92628,2.1835,10.00651,10.00651,0,0,1,1.85374,2.90425,10.489,10.489,0,0,1,.20605,7.7036,11.214,11.214,0,0,1-6.92087,7.024c-3.62525,1.25644-7.18878,2.57474-10.71094,4.03711-3.62526,1.48312-7.22989,3.04858-10.7728,4.7375a204.03969,204.03969,0,0,0-27.12743,15.38671.02019.02019,0,0,0-.02062.02062q-4.26378,2.84246-8.38336,5.891a6.57208,6.57208,0,0,0-2.451,6.73556l.4531,2.01855a6.598,6.598,0,0,0,10.66971,3.5634c1.09175-.90631,2.18337-1.792,3.29574-2.6777a220.2684,220.2684,0,0,1,45.95395-28.40449,10.08233,10.08233,0,0,1,13.7594,5.12886,10.32331,10.32331,0,0,1,.16469,7.64188,11.05631,11.05631,0,0,1-6.92087,6.9826,211.41945,211.41945,0,0,0-21.48361,8.60991,204.26806,204.26806,0,0,0-27.86893,15.71623l-.1237.06185c-2.82191,1.87435-5.60258,3.8518-8.32152,5.84974a6.53489,6.53489,0,0,0-2.45116,6.73556l.45322,2.08041a6.57,6.57,0,0,0,10.58724,3.62525c1.133-.92693,2.28646-1.85386,3.41932-2.78079a221.59761,221.59761,0,0,1,46.71607-28.65165,10.11171,10.11171,0,0,1,13.73878,5.17009,10.47912,10.47912,0,0,1,.16482,7.62126v.02049a11.06271,11.06271,0,0,1-6.96211,6.87976,214.5215,214.5215,0,0,0-21.44238,8.46572,204.928,204.928,0,0,0-28.67239,16.00462,1.13756,1.13756,0,0,1-.18531.1442c-1.9156,1.27706-3.8107,2.59536-5.685,3.93415-.86508.59742-1.73028,1.236-2.59536,1.87448a6.5839,6.5839,0,0,0-2.47177,6.73544l.49433,2.101a6.57336,6.57336,0,0,0,10.58736,3.64587c1.13286-.94755,2.28634-1.87448,3.43981-2.7808q4.91269-3.92378,10.093-7.60063a215.237,215.237,0,0,1,37.42638-21.33942,10.13147,10.13147,0,0,1,13.69767,5.21133,10.47272,10.47272,0,0,1,.1442,7.58v.02062a11.07,11.07,0,0,1-6.98272,6.79729,209.25883,209.25883,0,0,0-20.63916,7.992c-.24717.103-.53544.22655-.78273.35013a199.73219,199.73219,0,0,0-29.43439,16.33414.58744.58744,0,0,0-.2884.16482q-4.171,2.78061-8.21855,5.76739a6.60285,6.60285,0,0,0-2.47177,6.75618l.49445,2.12152a6.57015,6.57015,0,0,0,10.56662,3.66649c1.1536-.94755,2.32758-1.87448,3.50167-2.80141A217.98955,217.98955,0,0,1,348.33022,346.188c3.06907-1.52423,6.2-2.98672,9.35141-4.36675A10.13624,10.13624,0,0,1,371.48227,354.592a10.98911,10.98911,0,0,1-6.96211,6.79728c-1.60657.51495-3.19265,1.0299-4.77873,1.6067-5.6232,1.93621-11.18466,4.11959-16.643,6.55013a202.12977,202.12977,0,0,0-30.23786,16.64315c-.103.06173-.20593.14408-.32951.22655h-.02062c-2.76,1.85374-5.479,3.74884-8.17732,5.72616a6.53465,6.53465,0,0,0-2.45115,6.73556l.47371,2.18337a6.57552,6.57552,0,0,0,10.56674,3.66649c1.15348-.96817,2.32758-1.8951,3.52229-2.822a216.73746,216.73746,0,0,1,45.87149-28.01312c1.05051-.47371,2.14226-.968,3.21327-1.42126A10.11668,10.11668,0,0,1,379.28883,385.221v.02062a10.96648,10.96648,0,0,1-6.9826,6.69433c-3.6871,1.15348-7.35347,2.43054-10.97872,3.76945q-5.25252,2.00819-10.42255,4.26379a199.79913,199.79913,0,0,0-31.02046,16.93143,4.65678,4.65678,0,0,0-.412.26778l-.02062.02062c-2.73956,1.81263-5.45838,3.72822-8.11559,5.66443a6.49644,6.49644,0,0,0-2.47177,6.73543l.51494,2.26585a6.56554,6.56554,0,0,0,10.54626,3.64587c1.174-.94755,2.36868-1.91572,3.5634-2.86314a218.8748,218.8748,0,0,1,33.71878-21.97807c5.23183-2.78067,10.62847-5.35541,16.1487-7.683a10.1404,10.1404,0,0,1,13.57409,5.29368,9.98766,9.98766,0,0,1,.103,7.43582v.04124a10.78529,10.78529,0,0,1-6.98272,6.63247,204.39665,204.39665,0,0,0-21.36,7.889c-5.29355,2.26584-10.443,4.75811-15.44844,7.43582q-8.46572,4.511-16.35475,9.76352a5.14159,5.14159,0,0,0-.49433.35013c-2.73944,1.81262-5.43776,3.7076-8.095,5.62319a6.56553,6.56553,0,0,0-2.47178,6.75618l.53557,2.28634a6.59621,6.59621,0,0,0,9.47512,4.408,12.18868,12.18868,0,0,0,1.071-.721c1.19471-.98866,2.38942-1.93621,3.60463-2.90425A215.00171,215.00171,0,0,1,381.1427,433.379a10.14482,10.14482,0,0,1,13.55346,5.33492,9.82483,9.82483,0,0,1,.06173,7.374v.02061a10.75635,10.75635,0,0,1-6.98272,6.612,204.66739,204.66739,0,0,0-21.33942,7.72422,201.7047,201.7047,0,0,0-32.56531,17.48762,5.658,5.658,0,0,0-.57667.39136c-2.71894,1.792-5.39665,3.66637-8.05386,5.58208a6.57925,6.57925,0,0,0-2.47178,6.75606A99.13948,99.13948,0,0,0,345.15819,534.35c.61791.72088,1.27706,1.44176,1.93608,2.14214a99.93956,99.93956,0,0,0,37.01453,24.84109,36.40957,36.40957,0,0,1,20.24779,19.774l37.28219,87.603a32.21522,32.21522,0,0,0,31.63838,19.3621l.55618-.06186c.98866-.08234,1.99794-.20593,3.00734-.39136a31.19455,31.19455,0,0,0,3.81057-.94755,31.988,31.988,0,0,0,21.85436-36.10809l-4.65515-26.07691-1.77139-9.784-1.05051-5.93221-1.77139-9.94883-2.43054-13.53285a36.80252,36.80252,0,0,1,25.80925-41.752l7.49755-2.18338,9.784-2.90425,59.40446-17.48762a62.52155,62.52155,0,0,0,43.48218-73.3904ZM466.87123,674.80727a13.88418,13.88418,0,0,1-2.05979.16469c-11.164,0-20.20655-11.74071-20.20655-26.26234,0-14.5009,9.04251-26.28285,20.20655-26.28285a11.57494,11.57494,0,0,1,2.05979.1647c10.17538,1.33891,18.14677,12.503,18.14677,26.11815C485.018,662.32494,477.04661,673.50959,466.87123,674.80727Z"/><path class="cls-12" d="M605.54865,515.90787a62.24251,62.24251,0,0,1-12.22651,5.05257l-59.39666,17.49118.94493,7.71385q-5.40933-2.34307-10.74156-4.82116c-13.20993-6.1325-26.15-12.90142-38.87778-19.92106-2.14056-1.17634-4.30043-2.372-6.49891-3.54843-23.73938-12.88212-50.44868-25.08921-75.03659-15.312-13.38355,5.32258-23.46937,16.41124-35.25226,24.66512-6.28681,4.41614-13.827,8.00306-21.36741,9.25661-.65561-.69422-1.31134-1.40774-1.94777-2.14057A98.84723,98.84723,0,0,1,322.778,490.66423a6.5525,6.5525,0,0,1,2.46837-6.74962q3.963-2.89271,8.04178-5.59248l-1.92846-8.52389c.17349-.135.36641-.2699.53991-.42421l-1.38844-6.1132c-1.21494.96424-2.41058,1.92847-3.60622,2.91189a9.28318,9.28318,0,0,1-1.06075.71352c1.23425-2.372,2.52628-4.72464,3.87623-7.07743,2.15987-3.72192,4.41626-7.40524,6.69183-11.08867v-.0193c2.27558-3.664,4.58976-7.30884,6.82672-10.99215,3.14341-5.11048,6.17111-10.25944,8.89019-15.52423.38572-.73282.75213-1.46553,1.09924-2.21766v-.0193a97.54819,97.54819,0,0,0,3.97263-9.29521c.84853-2.31418,1.60066-4.66685,2.27557-7.03894a79.6607,79.6607,0,0,0,1.85137-7.90666A75.18115,75.18115,0,0,0,362.755,380.8575v-.01931a63.279,63.279,0,0,0-.44351-6.94242c-.19292-1.485-.42433-2.9313-.71352-4.37765a48.62041,48.62041,0,0,0-1.85137-6.51822,39.63233,39.63233,0,0,0-6.67253-11.89858,36.37029,36.37029,0,0,0-4.204-4.45475c-.17349-.15431-.34711-.3085-.5399-.46281a41.57678,41.57678,0,0,0-4.72476-3.56761,50.49237,50.49237,0,0,0-7.57885-3.95345,85.40961,85.40961,0,0,0-15.40841-4.62824h-.0193c-2.6999-.57852-5.43829-1.09924-8.21528-1.62-3.87623-.69422-7.81025-1.36914-11.68648-2.17918-.23141-.03849-.44351-.07709-.67492-.135a1.16788,1.16788,0,0,1-.25071-.0578c-2.33348-.48211-4.64766-1.00284-6.92324-1.60065,1.87068-1.34995,3.76053-2.66129,5.66969-3.95333l-2.12126-9.41091c.05779-.03861.0964-.0771.15419-.11571l-1.38843-6.11319q-1.70678,1.38843-3.41342,2.777a6.57308,6.57308,0,0,1-10.58725-3.62552l-.46281-2.08278a6.55856,6.55856,0,0,1,2.44918-6.73032c2.73839-2.00567,5.51538-3.97263,8.331-5.8433l-2.16-9.623c.01931-.01931.05791-.03861.07722-.0578l-1.38856-6.0747c-1.11842.88713-2.21766,1.77415-3.2976,2.68059a6.6056,6.6056,0,0,1-10.68376-3.56773l-.44351-2.00556a6.54577,6.54577,0,0,1,2.44919-6.73032q4.10757-3.06625,8.38877-5.90109l-1.40774-6.26751-.81-3.54843-1.38844-6.05528c-1.09924.86771-2.17917,1.75485-3.25911,2.642a6.60551,6.60551,0,0,1-10.68365-3.56773l-2.025-8.92879a83.983,83.983,0,0,1,12.67-66.24269,84.22184,84.22184,0,0,1,17.93481-18.93752A296.21509,296.21509,0,0,1,420.58963,94.86634c19.95967-3.4519,86.74238-10.70295,130.0556,35.40657a117.644,117.644,0,0,1,24.60721,40.42064,7.5073,7.5073,0,0,1-6.65322,10.04734l1.50426,6.90382.61712,2.75769,1.292,5.8626c2.17917.57852,4.339,1.19564,6.47961,1.83207a7.48771,7.48771,0,0,1,5.12978,5.57317l.0964.50142a7.51083,7.51083,0,0,1-7.98387,9.10241l1.562,7.116,1.77415,8.09946c2.10208.55933,4.20416,1.13784,6.28682,1.755a7.56717,7.56717,0,0,1,5.284,5.63108l.07721.405a7.48854,7.48854,0,0,1-7.926,9.083l1.562,7.116,1.77416,8.08027c2.08277.55933,4.16543,1.13784,6.2289,1.755a7.54108,7.54108,0,0,1,5.26478,5.63108l.0771.28931a7.5002,7.5002,0,0,1-7.88747,9.1023l1.562,7.116,1.77427,8.061c2.102.55933,4.204,1.13784,6.306,1.77415a7.4743,7.4743,0,0,1,5.14908,5.59259l.03849.2121a7.49218,7.49218,0,0,1-7.82956,9.10241l1.56206,7.09674,1.755,8.04166c2.102.54,4.18474,1.13784,6.26751,1.755a7.45,7.45,0,0,1,5.12966,5.59247l.03861.135a7.48318,7.48318,0,0,1-7.79107,9.0831l1.56217,7.09674,1.75485,8.02235c2.08277.52073,4.14624,1.09924,6.2096,1.71637a7.51139,7.51139,0,0,1,5.12978,5.59259l.0193.07709a7.49768,7.49768,0,0,1-7.73316,9.10241l1.562,7.09674,1.73567,7.94526c2.06335.53991,4.12682,1.11842,6.15168,1.71624a7.51545,7.51545,0,0,1-2.54547,14.695l1.56206,7.07743,1.73554,7.926c2.00568.50142,3.99194,1.06063,5.97831,1.65845a7.60656,7.60656,0,0,1,5.26467,5.6312l4.64754,21.3095A62.614,62.614,0,0,1,605.54865,515.90787Z"/><path class="cls-12" d="M605.54865,515.90787a190.82347,190.82347,0,0,0-72.04738-17.45257c-1.485-.05791-2.96991-.09652-4.45486-.135-12.265-.23141-24.58791.34711-36.6793-1.27285h-.0193c-1.58136-.1928-3.16271-.44351-4.72476-.73283-15.08061-2.79617-30.25761-10.52933-37.23863-24.18289a39.84218,39.84218,0,0,1-4.24265-17.25977,71.56574,71.56574,0,0,1,2.48779-19.18824c.65562-2.62268,1.40775-5.26467,2.21767-7.88735,1.50426-4.87907,3.20131-9.77733,4.82116-14.63709.88713-2.62269,1.755-5.22607,2.56489-7.82956.54-1.77416,1.06063-3.52912,1.54274-5.284.0964-.36641.19292-.71352.27-1.07993.69422-2.52628,1.25355-5.09117,1.71636-7.65594a101.79875,101.79875,0,0,0,1.562-12.74724c.15419-2.41058.2121-4.80186.2121-7.19313,0-2.12126-.07709-4.24265-.1928-6.36391-.15431-2.35279-.36641-4.68615-.65573-7.01964-.46281-3.89553-1.13784-7.791-1.98625-11.62869-.50142-2.29476-1.08006-4.55114-1.71636-6.80741-.57852-2.06347-1.21495-4.08834-1.89-6.1132-.752-2.19848-1.562-4.37765-2.41058-6.53752q-2.28516-5.66974-5.07175-11.08867c-1.09924-2.14056-2.27569-4.262-3.50982-6.3446-1.07993-1.87067-2.23708-3.70274-3.43272-5.5155q-1.967-3.03729-4.16543-5.95888a123.63949,123.63949,0,0,0-8.736-10.54876c-1.81276-1.94777-3.664-3.81832-5.59247-5.63108-1.58136-1.50426-3.20132-2.9698-4.87907-4.35835-2.02486-1.73555-4.12694-3.39412-6.26751-4.99466a110.87533,110.87533,0,0,0-14.772-9.1602q-4.28132-2.22743-8.7553-4.04984c-2.06347-.84853-4.16543-1.61985-6.28681-2.31418-.32781-.11571-.63631-.23141-.96423-.32781-4.78256-1.54275-9.70011-2.7963-14.67558-3.89553-11.64788-2.62269-23.58508-4.47394-34.92445-7.54025-3.50982-.94492-6.96173-2.00556-10.31724-3.2591A75.55934,75.55934,0,0,1,307.6781,234.815h-.01931a63.25873,63.25873,0,0,1-5.39967-3.77983c-.01931-.0193-.03861-.03849-.0578-.03849a59.55484,59.55484,0,0,1-8.25388-7.92607c-12.11069-14.15486-17.20186-33.5552-16.43055-52.97485a84.22184,84.22184,0,0,1,17.93481-18.93752A296.21509,296.21509,0,0,1,420.58963,94.86634c19.95967-3.4519,86.74238-10.70295,130.0556,35.40657a117.644,117.644,0,0,1,24.60721,40.42064,7.5073,7.5073,0,0,1-6.65322,10.04734l1.50426,6.90382.61712,2.75769,1.292,5.8626c2.17917.57852,4.339,1.19564,6.47961,1.83207a7.48771,7.48771,0,0,1,5.12978,5.57317l.0964.50142a7.51083,7.51083,0,0,1-7.98387,9.10241l1.562,7.116,1.77415,8.09946c2.10208.55933,4.20416,1.13784,6.28682,1.755a7.56717,7.56717,0,0,1,5.284,5.63108l.07721.405a7.48854,7.48854,0,0,1-7.926,9.083l1.562,7.116,1.77416,8.08027c2.08277.55933,4.16543,1.13784,6.2289,1.755a7.54108,7.54108,0,0,1,5.26478,5.63108l.0771.28931a7.5002,7.5002,0,0,1-7.88747,9.1023l1.562,7.116,1.77427,8.061c2.102.55933,4.204,1.13784,6.306,1.77415a7.4743,7.4743,0,0,1,5.14908,5.59259l.03849.2121a7.49218,7.49218,0,0,1-7.82956,9.10241l1.56206,7.09674,1.755,8.04166c2.102.54,4.18474,1.13784,6.26751,1.755a7.45,7.45,0,0,1,5.12966,5.59247l.03861.135a7.48318,7.48318,0,0,1-7.79107,9.0831l1.56217,7.09674,1.75485,8.02235c2.08277.52073,4.14624,1.09924,6.2096,1.71637a7.51139,7.51139,0,0,1,5.12978,5.59259l.0193.07709a7.49768,7.49768,0,0,1-7.73316,9.10241l1.562,7.09674,1.73567,7.94526c2.06335.53991,4.12682,1.11842,6.15168,1.71624a7.51545,7.51545,0,0,1-2.54547,14.695l1.56206,7.07743,1.73554,7.926c2.00568.50142,3.99194,1.06063,5.97831,1.65845a7.60656,7.60656,0,0,1,5.26467,5.6312l4.64754,21.3095A62.614,62.614,0,0,1,605.54865,515.90787Z"/><path class="cls-5" d="M124.30753,626.69394l-4.641,1.46728a1.059,1.059,0,0,0-.30971.14873,1.08334,1.08334,0,0,1-.31047.14872l-.64932.20545a4.13282,4.13282,0,0,0-.62018.299l-1.11388.35264a2.03176,2.03176,0,0,0-.40324.17786,2.23683,2.23683,0,0,1-.40323.17785,16.63156,16.63156,0,0,1-13.2393-.8678q-6.00138-3.15535-9.706-12.29484-1.03722-2.63559-2.03688-5.63455-.99927-3.00357-1.85135-5.69436l-3.173-9.716q-4.35585-16.998,4.39419-23.23584a61.35275,61.35275,0,0,1,7.722-4.63644,66.81892,66.81892,0,0,1,8.75388-3.63525l12.15838-3.84376a31.1096,31.1096,0,0,1,8.64426-1.55775,19.2168,19.2168,0,0,1,7.37015,1.19131l-.09352.02913a15.05153,15.05153,0,0,1,7.06581,4.91241,37.84328,37.84328,0,0,1,5.67519,9.23148q.683,1.52018,1.41055,3.33167.72559,1.81226,1.3178,3.36081.64855,1.73406,1.19284,3.45126.54276,1.71567,1.10007,3.48039,4.63645,14.66366,2.46925,21.373-1.13381,3.521-5.69435,6.85347a52.85518,52.85518,0,0,1-12.79773,6.3429L131.9322,607.541q8.53807-2.7,10.23343-4.76676l.02913.09353q1.03493-1.2465-1.10621-8.02177-1.17407-3.71421-2.38185-7.21071-1.20855-3.498-2.5666-7.1509a27.39657,27.39657,0,0,0-2.102-4.38959,3.87946,3.87946,0,0,0-2.14037-1.92572q-2.88513-.72213-7.89451.86167l-.92837.29438-8.97389,2.93917-2.87708.90919q-1.20739.38178-2.4447.82334-1.23846.44156-2.6011.97512l-.371.11806q-2.35616.94752-4.34052,1.93338a6.80614,6.80614,0,0,0-2.80578,2.26609,4.50952,4.50952,0,0,0-.588,3.14615,34.529,34.529,0,0,0,.7758,4.55211l.11806.371q.22884,1.051.47683,1.99318c.16329.62861.335,1.222.51056,1.77852q1.02687,3.24735,2.05681,6.34291,1.028,3.09325,2.24155,6.28464a14.04111,14.04111,0,0,0,2.54667,4.503,3.45206,3.45206,0,0,0,3.49343,1.03952l2.59879-.8218q.99123-.41627,3.08023-1.07478,2.08824-.66,3.75867-1.18824Z"/><path class="cls-5" d="M152.59761,706.674l-17.23255-27.10874q-1.16715.16329-2.1281.37257a20.87549,20.87549,0,0,1-2.26225.34191l.082-.05213q-1.98013.33577-4.592.67-2.61489.33578-4.42715.56576l-8.87731-13.966,71.04833-9.98428,8.66879,13.63639-38.72437,60.83483L145.32788,718.101Zm7.6423-11.20165q1.62023-2.52981,3.35467-5.24666,1.73292-2.71839,3.24275-5.0596,1.09011-1.73177,1.90118-2.99743.80954-1.26491,1.60681-2.46234.79574-1.19822,1.7034-2.58193.90612-1.3868,2.27452-3.40834-2.71149.45537-5.29725.831-2.58845.37488-5.21523.77734-2.11353.30588-3.85986.55043-1.74672.24608-3.41217.4385-1.66621.19548-3.54632.40936-1.8824.21389-4.293.59489Z"/><path class="cls-5" d="M232.88432,720.57258l-47.76573,44.549L174.62835,753.874l47.76572-44.549Z"/><path class="cls-5" d="M229.46065,760.94208a82.03223,82.03223,0,0,1,7.50891-8.78531,40.90115,40.90115,0,0,1,7.489-6.00253q4.5157-2.93687,10.87355-1.2695,6.3544,1.66508,14.37311,7.68753l2.88014,2.16183a111.60236,111.60236,0,0,1,10.46034,8.76538,39.85576,39.85576,0,0,1,6.50773,7.86845l-.07743-.05826a12.92323,12.92323,0,0,1,1.75629,9.89995q-1.10391,5.44139-5.95346,11.90234l-2.51294,3.347q-2.45391,3.27034-4.99674,6.65568-2.54246,3.38533-5.15236,6.53915a33.186,33.186,0,0,1-7.73276,7.21837,15.88611,15.88611,0,0,1-8.23949,2.70766l.06209-.0828q-7.98383.57955-19.9701-8.4204L233.9338,808.973q-.71985-.66465-1.2258-1.04259-.50712-.38177-1.12922-.84786a64.1418,64.1418,0,0,1-8.66878-7.66454,40.16092,40.16092,0,0,1-5.39921-7.157q-4.04538-8.39433,3.08559-19.35068,1.61677-2.31591,3.3999-4.6901,1.78236-2.3734,3.47733-4.63183Zm10.37065,11.80268-5.47433,7.45448q-4.11208,5.79784-3.508,8.077.60024,2.7644,8.3859,8.609,9.26369,6.95464,13.74066,8.12449,3.114.87853,8.25712-5.48583l2.864-3.81311q.77735-.87852,1.50945-1.849.7302-.97282,1.49028-1.98551l5.72732-7.62774q4.85032-6.4625,3.62528-8.72091a27.2319,27.2319,0,0,0-4.01778-4.53831,83.451,83.451,0,0,0-7.20994-5.9596L263.12,763.45042q-6.69592-5.0251-9.63471-5.16386l.0782.05826q-2.41482.13569-7.08958,5.8768Z"/><path class="cls-5" d="M352.074,834.153a82.10953,82.10953,0,0,1,3.68048-10.95634,40.93,40.93,0,0,1,4.7016-8.36675q3.091-4.41105,9.611-5.24205,6.51654-.83023,16.20453,1.75706l3.47962.92913a111.47926,111.47926,0,0,1,12.97865,4.2194,39.80853,39.80853,0,0,1,8.97773,4.86642l-.09431-.02607a12.92877,12.92877,0,0,1,5.331,8.5262q1.00962,5.45978-1.07325,13.26383l-1.07938,4.04461q-1.05447,3.95109-2.1465,8.04171-1.0924,4.08907-2.33508,7.98957a33.19752,33.19752,0,0,1-4.47315,9.58718,15.88988,15.88988,0,0,1-6.63038,5.5901l.02606-.09966q-7.18808,3.521-21.66966-.345l-3.38534-.90306q-.91647-.34726-1.52708-.509-.6129-.16329-1.36379-.36338a64.265,64.265,0,0,1-10.90575-3.86829,40.07344,40.07344,0,0,1-7.68293-4.62111q-6.89025-6.2716-4.372-19.10077.6336-2.75058,1.39983-5.62076.76584-2.86786,1.49411-5.59469Zm14.03044,7.07118-2.29062,8.95856q-1.64553,6.91555-.23458,8.80371,1.59031,2.33892,10.997,4.84955,11.18976,2.98748,15.78136,2.39948,3.21514-.34958,5.60773-8.17509l1.2304-4.60731q.39327-1.10391.70911-2.27988.31392-1.17522.64012-2.398l2.4608-9.21614q2.08365-7.80559.10273-9.44306a27.296,27.296,0,0,0-5.423-2.70766,83.419,83.419,0,0,0-8.91563-2.83338l-2.53977-.67768q-8.08846-2.15952-10.86588-1.18824l.09429.02607q-2.18941,1.028-4.37885,8.1Z"/><path class="cls-5" d="M442.85249,889.46674l1.248-65.30262,37.37131.71295c.71217.0138,1.46038.02913,2.23925.04293q1.16832.023,2.43168.14412a32.78182,32.78182,0,0,1,6.11139,1.09011,17.26014,17.26014,0,0,1,5.4981,2.63713,16.78015,16.78015,0,0,1,5.27425,6.76914,28.26911,28.26911,0,0,1,1.95025,7.58327l-.04293,2.23849a2.10487,2.10487,0,0,0,.03986.4385,2.34786,2.34786,0,0,1,.03987.4385l-.01534.87546q-.023,1.074-.09506,2.33509-.07359,1.26489-.19011,2.33355a26.67965,26.67965,0,0,1-1.86746,6.001,13.54105,13.54105,0,0,1-4.09061,5.1792,15.8842,15.8842,0,0,1-4.37886,2.447,28.62922,28.62922,0,0,1-4.79589,1.271,36.71349,36.71349,0,0,1-5.0228.53662q-2.5344.09889-4.96608.05213l-.38944-.00766a2.6824,2.6824,0,0,0-.53662.03833,2.11816,2.11816,0,0,1-.4385.03986l-19.85434-.3787-.43467,22.77281ZM458.61622,854.232l15.76679.302a57.92621,57.92621,0,0,0,7.69673-.29131,27.16025,27.16025,0,0,0,5.1792-1.02112l-.09813.09659q2.15263-.83484,2.26916-6.67561a21.617,21.617,0,0,0-.30664-4.38652,8.96561,8.96561,0,0,0-1.015-2.9407l.09812.00306a3.09346,3.09346,0,0,0-2.171-1.11311,32.08189,32.08189,0,0,0-5.00517-.3879l-22.09207-.42164Z"/><path class="cls-5" d="M542.73212,832.514l2.52674,12.19978,36.22062-7.50048,2.58653,12.48649-36.22216,7.50048,2.90238,14.012L588.4924,863.396l2.585,12.48649-52.52022,10.87661-13.24389-63.958,52.52021-10.87662,2.6448,12.7732Z"/><path class="cls-5" d="M659.9248,776.22208l28.2065,58.91065-16.76873,8.02944-51.80574-25.70279L639.22949,858.548l-13.6088,6.51616-28.20652-58.91065,16.76875-8.02944,52.01732,26.14129L646.316,782.73824Z"/><path class="cls-5" d="M771.811,668.74844l49.96128,42.06984-9.90609,11.76434-32.16528-27.08574q1.04642,2.53669,1.97478,4.90935.92913,2.37341,1.97478,4.90781,3.54863,8.33225,7.19844,17.06773,3.6498,8.737,6.97305,16.88068l-8.0877,9.604L743.82222,738.712l31.86784,26.8343-9.78037,11.61562-49.96282-42.06983,12.72721-15.11595,49.95821,11.39791q-2.26761-5.469-4.52451-10.872-2.26073-5.40228-4.526-10.87355-2.5344-6.20492-5.28652-12.91425-2.75059-6.70628-5.33712-12.70267Z"/><path class="cls-5" d="M788.382,634.57159l57.71014,30.58913-7.203,13.58887L781.179,648.16046Z"/><path class="cls-5" d="M855.18256,565.1063l4.6395,1.47342a1.1027,1.1027,0,0,0,.33884.05673,1.05133,1.05133,0,0,1,.33884.05673l.65008.20545a3.92764,3.92764,0,0,0,.67922.11346l1.11311.35417a2.13491,2.13491,0,0,0,.43237.08586,2.36807,2.36807,0,0,1,.43236.08586A16.64016,16.64016,0,0,1,874.13,575.87252q3.08865,6.037.85246,15.64184-.66924,2.75059-1.57921,5.78022-.913,3.02886-1.76626,5.72042l-3.0005,9.76963q-6.2325,16.40691-16.97573,16.46518a61.24713,61.24713,0,0,1-8.9831-.65775,66.46694,66.46694,0,0,1-9.24987-2.06984l-12.15225-3.8591a31.22186,31.22186,0,0,1-7.965-3.70424,19.26934,19.26934,0,0,1-5.33865-5.21906l.09353.02913a15.0402,15.0402,0,0,1-2.94684-8.08616,37.78938,37.78938,0,0,1,.67768-10.81529q.31507-1.63517.76507-3.53559.45077-1.89735.8586-3.50646.46687-1.78926,1.01192-3.508.54507-1.71567,1.10545-3.47886,4.65483-14.65676,10.29093-18.89378,2.953-2.22622,8.60132-2.32436a52.82388,52.82388,0,0,1,14.11476,2.18637l-4.6257,14.56552q-8.53464-2.71149-11.1112-1.99778l.02913-.092q-1.56157.42087-3.715,7.19384-1.17751,3.7119-2.20476,7.26589-1.028,3.55783-2.02078,7.3257a27.4113,27.4113,0,0,0-.80953,4.79742,3.88483,3.88483,0,0,0,.64088,2.80885q1.941,2.25152,6.95005,3.8407l.9276.29591,9.02909,2.76438,2.87631.91379q1.2051.38407,2.47307.73441,1.2672.35189,2.68772.70068l.371.11806q2.47231.58185,4.661.91839a6.81267,6.81267,0,0,0,3.59845-.23458,4.518,4.518,0,0,0,2.29369-2.23389,34.5396,34.5396,0,0,0,1.987-4.16881l.11806-.371c.279-.66082.53049-1.29557.75894-1.90425.22692-.60716.42927-1.19131.60562-1.74787q1.03032-3.24734,1.97171-6.3705.94293-3.12085,1.78619-6.42876a14.00026,14.00026,0,0,0,.5121-5.14853,3.45464,3.45464,0,0,0-2.25689-2.861l-2.59727-.82486q-1.04871-.23-3.13695-.8954-2.08824-.66235-3.7579-1.19284Z"/></g></g></svg>
